<svg xmlns="http://www.w3.org/2000/svg" xmlns:xlink="http://www.w3.org/1999/xlink" version="1.1" x="0px" y="0px" viewBox="0 0 100 125" enable-background="new 0 0 100 100" xml:space="preserve">
    <g>
        <path fill="#FFFFFF" d="M50,10.5c-21.78,0-39.5,17.72-39.5,39.5S28.22,89.5,50,89.5S89.5,71.78,89.5,50S71.78,10.5,50,10.5z M32.375,70.452   C31.988,70.818,31.494,71,31,71c-0.529,0-1.059-0.209-1.452-0.625c-0.76-0.802-0.726-2.068,0.077-2.828L48.153,50L29.625,32.452   c-0.803-0.76-0.837-2.025-0.077-2.828c0.762-0.802,2.026-0.834,2.827-0.077l20.062,19c0.399,0.378,0.625,0.903,0.625,1.452   s-0.226,1.074-0.625,1.452L32.375,70.452z M75.437,51.452l-20.062,19C54.988,70.818,54.494,71,54,71   c-0.529,0-1.059-0.209-1.452-0.625c-0.76-0.802-0.726-2.068,0.077-2.828L71.153,50L52.625,32.452   c-0.803-0.76-0.837-2.025-0.077-2.828c0.762-0.802,2.026-0.834,2.827-0.077l20.062,19c0.399,0.378,0.625,0.903,0.625,1.452   S75.836,51.074,75.437,51.452z"/>
    </g>
</svg>
